<?xml version="1.0" encoding="UTF-8" standalone="no"?>
<!-- Created with Inkscape (http://www.inkscape.org/) -->

<svg
   width="600"
   height="600"
   version="1.1"
   id="pieces-3"
   inkscape:version="1.2.2 (b0a8486541, 2022-12-01)"
   sodipodi:docname="pieces.3.svg"
   xmlns:inkscape="http://www.inkscape.org/namespaces/inkscape"
   xmlns:sodipodi="http://sodipodi.sourceforge.net/DTD/sodipodi-0.dtd"
   xmlns:xlink="http://www.w3.org/1999/xlink"
   xmlns="http://www.w3.org/2000/svg"
   xmlns:svg="http://www.w3.org/2000/svg">
  <sodipodi:namedview
     id="namedview7"
     pagecolor="#808080"
     bordercolor="#111111"
     borderopacity="1"
     inkscape:showpageshadow="0"
     inkscape:pageopacity="1"
     inkscape:pagecheckerboard="1"
     inkscape:deskcolor="#d1d1d1"
     inkscape:document-units="px"
     showgrid="true"
     inkscape:zoom="5.6568542"
     inkscape:cx="292.74221"
     inkscape:cy="299.45972"
     inkscape:window-width="1920"
     inkscape:window-height="1043"
     inkscape:window-x="0"
     inkscape:window-y="0"
     inkscape:window-maximized="1"
     inkscape:current-layer="_pri">
    <inkscape:grid
       type="xygrid"
       id="grid132"
       spacingx="100"
       spacingy="100"
       empspacing="0"
       originx="0"
       originy="0" />
    <inkscape:grid
       type="xygrid"
       id="grid134"
       color="#fe0000"
       opacity="0.14901961"
       empcolor="#fe0000"
       empopacity="0.30196078"
       spacingx="5"
       spacingy="5" />
  </sodipodi:namedview>
  <defs
     id="defs2">
    <marker
       markerWidth="1.05"
       markerHeight="1.9999999"
       refX="0"
       refY="0"
       orient="auto-start-reverse"
       id="Cap4"
       viewBox="0 0 1.05 2"
       inkscape:stockid="pin"
       style="overflow:visible"
       preserveAspectRatio="xMidYMid"
       inkscape:isstock="true"
       inkscape:collect="always">
      <path
         id="path104971"
         style="fill:context-stroke;stroke-linecap:butt"
         d="M 0,-1 H 0.585 C 1.33,-1 1.7,-1.6 2,-2 V 2 C 1.7,1.6 1.33,1 0.585,1 H 0 L -0.1,0 Z"
         sodipodi:nodetypes="sssssscsss"
         transform="scale(0.5)" />
    </marker>
  </defs>
  <g
     inkscape:label="Camada 1"
     inkscape:groupmode="layer"
     id="layer1">
    <circle
       style="font-variation-settings:normal;fill:#ffffff;fill-opacity:1;stroke:none;stroke-width:3;stroke-linecap:round;stroke-linejoin:round;stroke-miterlimit:4;stroke-dasharray:none;stroke-dashoffset:0;stroke-opacity:1;stop-color:#000000"
       id="path18718"
       cx="300"
       cy="100"
       r="85" />
    <g
       id="_kin"
       transform="matrix(3.7795278,0,0,3.7795278,-3.0404591e-6,-3.0404591e-6)">
      <path
         style="fill:#000000;stroke-width:0.529167;stroke-linecap:round;stroke-linejoin:round;stop-color:#000000"
         d="M 64.82 31.75 63.5 17.2 c 0 0 2.65 1.85 1.32 3.18 1.32 -1.32 2.65 0 2.65 1.32 -2.61 -0.87 -2.44 1.36 -2.12 2.65 0.53 2.12 2.12 2.65 3.44 2.38 1.3 -0.26 2.65 -1.59 2.65 -4.23 0 -1.32 -1.32 -2.12 -2.65 -1.32 0 -1.32 0.79 -3.17 2.65 -1.32 -1.14 -2.79 0.66 -3.97 0.66 -3.97 0 0 1.98 1.32 0.66 3.97 1.85 -1.85 2.65 0 2.65 1.32 -1.32 -0.79 -2.65 0 -2.65 1.32 0 3.97 2.65 3.97 2.65 3.97 2.65 0 3.18 -3.97 3.18 -7.94 0 -3.97 -3.17 -3.97 -3.17 -1.32 -3.97 -2.65 0 -6.61 2.65 -3.97 -1.46 -2.71 1.32 -5.29 1.32 -5.29 0.79 5.29 0.79 18.52 0 22.49 -6.61 0 -10.23 0.72 -14.55 1.32 z"
         id="_kinL"
         sodipodi:nodetypes="ccccssscccccsssccccc" />
      <use
         x="0"
         y="0"
         xlink:href="#_kinL"
         id="use475"
         transform="matrix(-1,0,0,1,158.75,0)" />
      <path
         style="fill:#000000;stroke-width:0.529167;stroke-linecap:round;stroke-linejoin:round;stop-color:#000000"
         d="m 64.82 33.07 c 5.29 -1.32 10.58 -1.59 14.55 -1.59 3.97 0 9.26 0.26 14.55 1.59 l -0.13 1.32 c -3.44 -1.32 -13.1 -1.59 -14.42 -1.59 -1.32 0 -10.98 0.26 -14.42 1.59 z"
         id="path477"
         sodipodi:nodetypes="czcczcc" />
      <path
         style="fill:#000000;stroke-width:0.529167;stroke-linecap:round;stroke-linejoin:round;stop-color:#000000"
         d="m 65.09 35.72 c 4.5 -1.32 11.64 -1.59 14.29 -1.59 2.65 0 9.79 0.26 14.29 1.59 l -0.53 5.29 c -3.97 -1.32 -12.44 -1.32 -13.76 -1.32 -1.32 0 -9.79 0 -13.76 1.32 z"
         id="path479"
         sodipodi:nodetypes="czcczcc" />
      <path
         style="fill:#000000;stroke-width:0.529167;stroke-linecap:round;stroke-linejoin:round;stop-color:#000000"
         d="m 78.05 18.52 h 2.65 c 1.32 0 1.32 2.65 0 2.65 H 78.05 c -1.32 0 -1.32 -2.65 0 -2.65 z"
         id="path608"
         sodipodi:nodetypes="sssss" />
    </g>
    <circle
       style="font-variation-settings:normal;fill:#ffffff;fill-opacity:1;stroke:none;stroke-width:3;stroke-linecap:round;stroke-linejoin:round;stroke-miterlimit:4;stroke-dasharray:none;stroke-dashoffset:0;stroke-opacity:1;stop-color:#000000"
       id="circle17981"
       cx="100"
       cy="100"
       r="90" />
    <circle
       style="font-variation-settings:normal;fill:#ffffff;fill-opacity:1;stroke:none;stroke-width:3;stroke-linecap:round;stroke-linejoin:round;stroke-miterlimit:4;stroke-dasharray:none;stroke-dashoffset:0;stroke-opacity:1;stop-color:#000000"
       id="path18720"
       cx="500"
       cy="100"
       r="80" />
    <circle
       style="font-variation-settings:normal;fill:#ffffff;fill-opacity:1;stroke:none;stroke-width:3;stroke-linecap:round;stroke-linejoin:round;stroke-miterlimit:4;stroke-dasharray:none;stroke-dashoffset:0;stroke-opacity:1;stop-color:#000000"
       id="path18722"
       cx="100"
       cy="300"
       r="75.000015" />
    <circle
       style="font-variation-settings:normal;fill:#ffffff;fill-opacity:1;stroke:none;stroke-width:3;stroke-linecap:round;stroke-linejoin:round;stroke-miterlimit:4;stroke-dasharray:none;stroke-dashoffset:0;stroke-opacity:1;stop-color:#000000"
       id="path18724"
       cx="300"
       cy="300"
       r="69.999985" />
    <circle
       style="font-variation-settings:normal;fill:#ffffff;fill-opacity:1;stroke:none;stroke-width:3;stroke-linecap:round;stroke-linejoin:round;stroke-miterlimit:4;stroke-dasharray:none;stroke-dashoffset:0;stroke-opacity:1;stop-color:#000000"
       id="path18726"
       cx="500"
       cy="300"
       r="65.000015" />
    <circle
       style="font-variation-settings:normal;fill:#ffffff;fill-opacity:1;stroke:none;stroke-width:3;stroke-linecap:round;stroke-linejoin:round;stroke-miterlimit:4;stroke-dasharray:none;stroke-dashoffset:0;stroke-opacity:1;stop-color:#000000"
       id="path18728"
       cx="100"
       cy="500"
       r="59.999981" />
    <circle
       style="font-variation-settings:normal;fill:#ffffff;fill-opacity:1;stroke:none;stroke-width:3;stroke-linecap:round;stroke-linejoin:round;stroke-miterlimit:4;stroke-dasharray:none;stroke-dashoffset:0;stroke-opacity:1;stop-color:#000000"
       id="path18730"
       cx="300"
       cy="500"
       r="54.999981" />
    <circle
       style="font-variation-settings:normal;fill:#ffffff;fill-opacity:1;stroke:none;stroke-width:3;stroke-linecap:round;stroke-linejoin:round;stroke-miterlimit:4;stroke-dasharray:none;stroke-dashoffset:0;stroke-opacity:1;stop-color:#000000"
       id="path18732"
       cx="500"
       cy="500"
       r="50.000019" />
    <path
       id="_pop"
       style="font-variation-settings:normal;fill:#000000;fill-opacity:1;stroke:none;stroke-width:2;stroke-linecap:round;stroke-linejoin:round;stroke-miterlimit:4;stroke-dasharray:none;stroke-dashoffset:0;stroke-opacity:1;stop-color:#000000"
       d="m 70,125 c 10,10 10,20 5,25 -5,5 -15,5 -25,-5 -10,-10 -10,-20 -5,-25 5,-5 15,-5 25,5 z M 87.5,97.5 70,115 c -5,-5 -20,-10 -30,0 -10,10 -5,25 5,35 10,10 25,15 35,5 10,-10 5,-25 0,-30 l 17.5,-17.5 z m 25,-5 12.5,-12.5 15,15 -5,5 5,5 15,-15 -10,-10 -5,5 -5,-5 5,-5 -5,-5 5,-5 5,5 5,-5 5,5 -5,5 10,10 15,-15 -5,-5 -5,5 -15,-15 5,-5 -10,-10 -42.5,42.5 z M 130,125 c -10,10 -10,20 -5,25 5,5 15,5 25,-5 10,-10 10,-20 5,-25 -5,-5 -15,-5 -25,5 z m -10,0 -45,-45 -15,15 5,5 -5,5 -15,-15 10,-10 5,5 5,-5 -5,-5 5,-5 -5,-5 -5,5 -5,-5 -5,5 5,5 -10,10 -15,-15 5,-5 5,5 15,-15 -5,-5 10,-10 75,75 c 5,-5 20,-10 30,0 10,10 5,25 -5,35 -10,10 -25,15 -35,5 -10,-10 -5,-25 0,-30 z"
       sodipodi:nodetypes="sssssccsssccccccccccccccccccccccccccccsssssccccccccccccccccccccccccsssc" />
    <g
       id="_bis"
       transform="matrix(3.7795278,0,0,3.7795278,-3.0404591e-6,-3.0404591e-6)">
      <path
         id="path632"
         style="fill:#000000;stroke-width:0.529167;stroke-linecap:round;stroke-linejoin:round;stop-color:#000000"
         d="m 132.29 11.91 c -2.65 3.97 -10.58 6.61 -10.58 11.91 0 1.32 0 3.97 3.97 5.29 l -1.32 3.97 c 5.29 2.65 10.58 2.65 15.88 0 l -1.32 -3.97 c 3.97 -1.32 3.97 -3.97 3.97 -5.29 0 -5.29 -7.94 -7.94 -10.58 -11.91 z m -1.32 6.61 h 2.65 v 2.65 h 2.65 v 2.65 h -2.65 v 2.65 h -2.65 v -2.65 h -2.65 v -2.65 h 2.65 z"
         sodipodi:nodetypes="csccccscccccccccccccc" />
      <path
         style="fill:#000000;stroke-width:0.529167;stroke-linecap:round;stroke-linejoin:round;stop-color:#000000"
         d="m 119.06 35.72 c 3.97 -3.97 10.58 3.97 12.44 -1.32 0 -1.32 1.59 -1.32 1.59 0 1.85 5.29 8.47 -2.65 12.44 1.32 l -1.32 2.91 c -2.65 -3.97 -7.94 3.7 -11.91 -1.06 -3.97 4.76 -9.26 -2.91 -11.91 1.06 z"
         id="path634"
         sodipodi:nodetypes="cccccccc" />
      <circle
         style="fill:#000000;stroke-width:0.529167;stroke-linecap:round;stroke-linejoin:round;stop-color:#000000"
         id="path877"
         cx="132"
         cy="11"
         r="2" />
    </g>
    <g
       id="_pri"
       transform="matrix(3.7795278,0,0,3.7795278,-3.0404591e-6,-3.0404591e-6)">
      <rect
         style="fill:#000000;stroke-width:0.529167;stroke-linecap:round;stroke-linejoin:round;stop-color:#000000"
         id="rect2948"
         width="5.2916646"
         height="26.458334"
         x="76.729164"
         y="66.145828"
         ry="2.6458316" />
      <use
         x="0"
         y="0"
         xlink:href="#bolotas"
         id="use18992"
         transform="matrix(1,0,0,-1,-4.2557012e-6,158.74999)" />
      <use
         x="0"
         y="0"
         xlink:href="#bolotas"
         id="use18994"
         transform="rotate(-90,79.374996,76.729164)" />
      <use
         x="0"
         y="0"
         xlink:href="#bolotas"
         id="use18996"
         transform="rotate(90,79.374997,76.729163)" />
      <rect
         style="fill:#000000;stroke-width:0.529167;stroke-linecap:round;stroke-linejoin:round;stop-color:#000000"
         id="rect2950"
         width="21.166664"
         height="5.2916708"
         x="68.791664"
         y="74.083328"
         ry="2.6458344" />
      <g
         id="bolotas">
        <circle
           style="font-variation-settings:normal;fill:#000000;fill-opacity:1;stroke:#000000;stroke-width:1.05833;stroke-linecap:round;stroke-linejoin:round;stroke-miterlimit:4;stroke-dasharray:none;stroke-dashoffset:0;stroke-opacity:1;stop-color:#000000"
           id="circle1853"
           cx="79.375"
           cy="65.352081"
           r="1.8520832" />
        <circle
           style="font-variation-settings:normal;fill:#000000;fill-opacity:1;stroke:#000000;stroke-width:1.05833;stroke-linecap:round;stroke-linejoin:round;stroke-miterlimit:4;stroke-dasharray:none;stroke-dashoffset:0;stroke-opacity:1;stop-color:#000000"
           id="circle1855"
           cx="75.935417"
           cy="68.527077"
           r="1.8520832" />
        <circle
           style="font-variation-settings:normal;fill:#000000;fill-opacity:1;stroke:#000000;stroke-width:1.05833;stroke-linecap:round;stroke-linejoin:round;stroke-miterlimit:4;stroke-dasharray:none;stroke-dashoffset:0;stroke-opacity:1;stop-color:#000000"
           id="circle1857"
           cx="82.814583"
           cy="68.527077"
           r="1.8520832" />
      </g>
    </g>
    <g
       id="_kni"
       transform="matrix(3.7795278,0,0,3.7795278,-3.0404591e-6,-3.0404591e-6)">
      <path
         style="fill:#000000;stroke-width:0.529167;stroke-linecap:round;stroke-linejoin:round;stop-color:#000000"
         d="m 141.55 76.73 c 1.32 1.32 -1.11 3.29 -2.65 3.97 l -2.65 -2.65 c -1.32 0 -3.97 0 -3.97 -2.65 0 5.29 6.61 7.14 6.61 15.08 -4.13 2.19 -10.58 2.12 -14.55 -1.85 0.14 -11.11 1.32 -19.05 9.26 -19.05 0 -2.12 2.65 -3.44 2.65 -3.44 v 3.97 c 0 0 1.32 0 2.65 1.32 0.94 0.94 0.55 3.2 2.65 5.29 z"
         id="path6009"
         sodipodi:nodetypes="sccccccccss" />
      <path
         style="fill:#000000;stroke-width:0.529167;stroke-linecap:round;stroke-linejoin:round;stop-color:#000000"
         d="m 123.56 87.84 c 0 -5.29 0 -19.05 9.26 -19.05 0 -0.47 0.79 -1.32 0.79 -1.32 -6.61 -0.79 -11.91 3.97 -11.91 17.99 0.29 0.83 1.85 2.38 1.85 2.38 z"
         id="path6739"
         sodipodi:nodetypes="ccccc" />
    </g>
    <g
       id="_nob">
      <path
         style="fill:#000000;stroke:none;stroke-width:3;stroke-linecap:round;stroke-linejoin:round;stroke-dasharray:none;stop-color:#000000"
         d="m 150,330 h -5 c 0,5 0,10 -4.5,10.25 l -10,-3.25 c -0.5,8 -0.5,13 -8.5,13 l -12.5,-5.5 c -2.17892,5.08415 -4.5,12.5 -9.5,12.5 -5,0 -7.178923,-7.08415 -9.5,-12.5 L 78,350 c -8,0 -8,-5 -8.5,-13 l -10,3.25 C 55,340 55,335 55,330 h -5 l 3,-8 32,-7 c 0,0 10,8 15,8 5,0 15,-8 15,-8 l 32,7 z"
         id="path1328"
         sodipodi:nodetypes="ccccccsccccccccsccc" />
      <path
         style="fill:none;stroke:#ffffff;stroke-width:2;stroke-linecap:round;stroke-linejoin:round;stroke-dasharray:none;stroke-opacity:1;stop-color:#000000"
         d="m 50,330 c 0,-10 5,-10 5,0 0,10 5,15 5,5 0,-10 10,-5 10,5 0,10 10,15 10,5 0,-10 13,-5 13,5 0,10 14,10 14,0 0,-10 13,-15 13,-5 0,10 10,5 10,-5 0,-10 10,-15 10,-5 0,10 5,5 5,-5 0,-10 5,-10 5,0"
         id="path1326" />
      <path
         style="fill:#000000;stroke:none;stroke-width:2;stroke-linecap:round;stroke-linejoin:round;stroke-opacity:1;stop-color:#000000"
         d="m 100,320 c 6.05479,0 20,-10 20,-20 0,-5 5,-10 5,-15 0,-20 -5,-30 -25,-30 -20,0 -25,10 -25,30 0,5 5,10 5,15 0,10 14.12832,20 20,20 z"
         id="path1241"
         sodipodi:nodetypes="ssszsss" />
      <g
         id="g1217"
         style="fill:#000000;stroke:#ffffff;stroke-opacity:1;stroke-width:4;stroke-dasharray:none">
        <circle
           style="font-variation-settings:normal;opacity:1;fill:#000000;fill-opacity:1;stroke:#ffffff;stroke-width:4;stroke-linecap:round;stroke-linejoin:round;stroke-miterlimit:4;stroke-dasharray:none;stroke-dashoffset:0;stroke-opacity:1;stop-color:#000000;stop-opacity:1"
           id="circle1195"
           cx="92"
           cy="250.5"
           r="7.5" />
        <circle
           style="font-variation-settings:normal;opacity:1;fill:#000000;fill-opacity:1;stroke:#ffffff;stroke-width:4;stroke-linecap:round;stroke-linejoin:round;stroke-miterlimit:4;stroke-dasharray:none;stroke-dashoffset:0;stroke-opacity:1;stop-color:#000000;stop-opacity:1"
           id="circle1197"
           cx="108"
           cy="250.5"
           r="7.5" />
        <circle
           style="font-variation-settings:normal;opacity:1;fill:#000000;fill-opacity:1;stroke:#ffffff;stroke-width:4;stroke-linecap:round;stroke-linejoin:round;stroke-miterlimit:4;stroke-dasharray:none;stroke-dashoffset:0;stroke-opacity:1;stop-color:#000000;stop-opacity:1"
           id="circle1199"
           cx="121"
           cy="257.5"
           r="7.5" />
        <circle
           style="font-variation-settings:normal;opacity:1;fill:#000000;fill-opacity:1;stroke:#ffffff;stroke-width:4;stroke-linecap:round;stroke-linejoin:round;stroke-miterlimit:4;stroke-dasharray:none;stroke-dashoffset:0;stroke-opacity:1;stop-color:#000000;stop-opacity:1"
           id="circle1201"
           cx="128.5"
           cy="270.5"
           r="7.5" />
        <circle
           style="font-variation-settings:normal;opacity:1;fill:#000000;fill-opacity:1;stroke:#ffffff;stroke-width:4;stroke-linecap:round;stroke-linejoin:round;stroke-miterlimit:4;stroke-dasharray:none;stroke-dashoffset:0;stroke-opacity:1;stop-color:#000000;stop-opacity:1"
           id="circle1203"
           cx="128.5"
           cy="285.5"
           r="7.5" />
        <circle
           style="font-variation-settings:normal;opacity:1;fill:#000000;fill-opacity:1;stroke:#ffffff;stroke-width:4;stroke-linecap:round;stroke-linejoin:round;stroke-miterlimit:4;stroke-dasharray:none;stroke-dashoffset:0;stroke-opacity:1;stop-color:#000000;stop-opacity:1"
           id="circle1207"
           cx="79"
           cy="257.5"
           r="7.5" />
        <circle
           style="font-variation-settings:normal;opacity:1;fill:#000000;fill-opacity:1;stroke:#ffffff;stroke-width:4;stroke-linecap:round;stroke-linejoin:round;stroke-miterlimit:4;stroke-dasharray:none;stroke-dashoffset:0;stroke-opacity:1;stop-color:#000000;stop-opacity:1"
           id="circle1209"
           cx="71.5"
           cy="270.5"
           r="7.5" />
        <circle
           style="font-variation-settings:normal;opacity:1;fill:#000000;fill-opacity:1;stroke:#ffffff;stroke-width:4;stroke-linecap:round;stroke-linejoin:round;stroke-miterlimit:4;stroke-dasharray:none;stroke-dashoffset:0;stroke-opacity:1;stop-color:#000000;stop-opacity:1"
           id="circle1211"
           cx="71.5"
           cy="285.5"
           r="7.5" />
      </g>
      <g
         id="g1239"
         style="fill:#000000;stroke:none">
        <circle
           style="font-variation-settings:normal;opacity:1;vector-effect:none;fill:#000000;fill-opacity:1;stroke:none;stroke-width:3;stroke-linecap:round;stroke-linejoin:round;stroke-miterlimit:4;stroke-dasharray:none;stroke-dashoffset:0;stroke-opacity:1;-inkscape-stroke:none;stop-color:#000000;stop-opacity:1"
           id="circle1219"
           cx="92"
           cy="250.5"
           r="7.5" />
        <circle
           style="font-variation-settings:normal;opacity:1;vector-effect:none;fill:#000000;fill-opacity:1;stroke:none;stroke-width:3;stroke-linecap:round;stroke-linejoin:round;stroke-miterlimit:4;stroke-dasharray:none;stroke-dashoffset:0;stroke-opacity:1;-inkscape-stroke:none;stop-color:#000000;stop-opacity:1"
           id="circle1221"
           cx="108"
           cy="250.5"
           r="7.5" />
        <circle
           style="font-variation-settings:normal;opacity:1;vector-effect:none;fill:#000000;fill-opacity:1;stroke:none;stroke-width:3;stroke-linecap:round;stroke-linejoin:round;stroke-miterlimit:4;stroke-dasharray:none;stroke-dashoffset:0;stroke-opacity:1;-inkscape-stroke:none;stop-color:#000000;stop-opacity:1"
           id="circle1223"
           cx="121"
           cy="257.5"
           r="7.5" />
        <circle
           style="font-variation-settings:normal;opacity:1;vector-effect:none;fill:#000000;fill-opacity:1;stroke:none;stroke-width:3;stroke-linecap:round;stroke-linejoin:round;stroke-miterlimit:4;stroke-dasharray:none;stroke-dashoffset:0;stroke-opacity:1;-inkscape-stroke:none;stop-color:#000000;stop-opacity:1"
           id="circle1225"
           cx="128.5"
           cy="270.5"
           r="7.5" />
        <circle
           style="font-variation-settings:normal;opacity:1;vector-effect:none;fill:#000000;fill-opacity:1;stroke:none;stroke-width:3;stroke-linecap:round;stroke-linejoin:round;stroke-miterlimit:4;stroke-dasharray:none;stroke-dashoffset:0;stroke-opacity:1;-inkscape-stroke:none;stop-color:#000000;stop-opacity:1"
           id="circle1227"
           cx="128.5"
           cy="285.5"
           r="7.5" />
        <circle
           style="font-variation-settings:normal;opacity:1;vector-effect:none;fill:#000000;fill-opacity:1;stroke:none;stroke-width:3;stroke-linecap:round;stroke-linejoin:round;stroke-miterlimit:4;stroke-dasharray:none;stroke-dashoffset:0;stroke-opacity:1;-inkscape-stroke:none;stop-color:#000000;stop-opacity:1"
           id="circle1229"
           cx="129.5"
           cy="300.5"
           r="7.5" />
        <circle
           style="font-variation-settings:normal;opacity:1;vector-effect:none;fill:#000000;fill-opacity:1;stroke:none;stroke-width:3;stroke-linecap:round;stroke-linejoin:round;stroke-miterlimit:4;stroke-dasharray:none;stroke-dashoffset:0;stroke-opacity:1;-inkscape-stroke:none;stop-color:#000000;stop-opacity:1"
           id="circle1231"
           cx="79"
           cy="257.5"
           r="7.5" />
        <circle
           style="font-variation-settings:normal;opacity:1;vector-effect:none;fill:#000000;fill-opacity:1;stroke:none;stroke-width:3;stroke-linecap:round;stroke-linejoin:round;stroke-miterlimit:4;stroke-dasharray:none;stroke-dashoffset:0;stroke-opacity:1;-inkscape-stroke:none;stop-color:#000000;stop-opacity:1"
           id="circle1233"
           cx="71.5"
           cy="270.5"
           r="7.5" />
        <circle
           style="font-variation-settings:normal;opacity:1;vector-effect:none;fill:#000000;fill-opacity:1;stroke:none;stroke-width:3;stroke-linecap:round;stroke-linejoin:round;stroke-miterlimit:4;stroke-dasharray:none;stroke-dashoffset:0;stroke-opacity:1;-inkscape-stroke:none;stop-color:#000000;stop-opacity:1"
           id="circle1235"
           cx="71.5"
           cy="285.5"
           r="7.5" />
        <circle
           style="font-variation-settings:normal;opacity:1;vector-effect:none;fill:#000000;fill-opacity:1;stroke:none;stroke-width:3;stroke-linecap:round;stroke-linejoin:round;stroke-miterlimit:4;stroke-dasharray:none;stroke-dashoffset:0;stroke-opacity:1;-inkscape-stroke:none;stop-color:#000000;stop-opacity:1"
           id="circle1237"
           cx="70.5"
           cy="300.5"
           r="7.5" />
      </g>
      <path
         id="path1522"
         style="font-variation-settings:normal;opacity:1;fill:#000000;fill-opacity:1;stroke:#ffffff;stroke-width:2;stroke-linecap:round;stroke-linejoin:round;stroke-miterlimit:4;stroke-dasharray:none;stroke-dashoffset:0;stroke-opacity:1;stop-color:#000000;stop-opacity:1"
         d="m 130,340 -10,-10 m -50,10 10,-10 m 28,20 -5,-18 m -11,18 5,-18 m -15,8 13,-19 m 23,19 -13,-19 m 33,9 -28,-12 m -48,12 28,-12"
         sodipodi:nodetypes="cccccccccccccccc" />
    </g>
    <g
       id="_ser">
      <ellipse
         style="font-variation-settings:normal;opacity:1;fill:#000000;fill-opacity:1;stroke:none;stroke-width:2;stroke-linecap:round;stroke-linejoin:round;stroke-miterlimit:4;stroke-dasharray:none;stroke-dashoffset:0;stroke-opacity:1;stop-color:#000000;stop-opacity:1"
         id="ellipse12394"
         cx="300"
         cy="510.5"
         rx="45"
         ry="15.5" />
      <path
         style="font-variation-settings:normal;opacity:1;fill:#000000;fill-opacity:1;stroke:#ffffff;stroke-width:2;stroke-linecap:round;stroke-linejoin:round;stroke-miterlimit:4;stroke-dasharray:none;stroke-dashoffset:0;stroke-opacity:1;stop-color:#000000;stop-opacity:1"
         d="m 270,510 c 0,-25 10,-40 30,-40 20,0 30,15 30,40 -10,10 -50,10 -60,0 z"
         id="path12280"
         sodipodi:nodetypes="cscc" />
      <circle
         style="font-variation-settings:normal;opacity:1;fill:#000000;fill-opacity:1;stroke:none;stroke-width:2;stroke-linecap:round;stroke-linejoin:round;stroke-miterlimit:4;stroke-dasharray:none;stroke-dashoffset:0;stroke-opacity:1;stop-color:#000000;stop-opacity:1"
         id="path12396"
         cx="300"
         cy="467"
         r="5" />
    </g>
    <g
       id="_trigo"
       transform="translate(140)">
      <path
         style="font-variation-settings:normal;opacity:1;fill:#000000;fill-opacity:1;stroke:none;stroke-width:2;stroke-linecap:round;stroke-linejoin:round;stroke-miterlimit:4;stroke-dasharray:none;stroke-dashoffset:0;stroke-opacity:1;stop-color:#000000;stop-opacity:1"
         d="m 485,475 c -5,0 -10,0 -10,-10 5,0 10,5 10,10 z"
         id="path16946"
         sodipodi:nodetypes="ccc" />
      <path
         style="font-variation-settings:normal;opacity:1;fill:#000000;fill-opacity:1;stroke:none;stroke-width:2;stroke-linecap:round;stroke-linejoin:round;stroke-miterlimit:4;stroke-dasharray:none;stroke-dashoffset:0;stroke-opacity:1;stop-color:#000000;stop-opacity:1"
         d="m 485,475 c -5,0 -10,0 -10,-10 5,0 10,0 10,10 z"
         id="path16948"
         sodipodi:nodetypes="ccc" />
      <path
         style="font-variation-settings:normal;opacity:1;fill:#000000;fill-opacity:1;stroke:none;stroke-width:2;stroke-linecap:round;stroke-linejoin:round;stroke-miterlimit:4;stroke-dasharray:none;stroke-dashoffset:0;stroke-opacity:1;stop-color:#000000;stop-opacity:1"
         d="m 485,485 c -5,0 -10,0 -10,-10 5,0 10,0 10,10 z"
         id="path16950"
         sodipodi:nodetypes="ccc" />
      <path
         style="font-variation-settings:normal;opacity:1;fill:#000000;fill-opacity:1;stroke:none;stroke-width:2;stroke-linecap:round;stroke-linejoin:round;stroke-miterlimit:4;stroke-dasharray:none;stroke-dashoffset:0;stroke-opacity:1;stop-color:#000000;stop-opacity:1"
         d="m 485,495 c -5,0 -10,0 -10,-10 5,0 10,0 10,10 z"
         id="path16952"
         sodipodi:nodetypes="ccc" />
      <path
         style="font-variation-settings:normal;opacity:1;fill:#000000;fill-opacity:1;stroke:none;stroke-width:2;stroke-linecap:round;stroke-linejoin:round;stroke-miterlimit:4;stroke-dasharray:none;stroke-dashoffset:0;stroke-opacity:1;stop-color:#000000;stop-opacity:1"
         d="m 497,465 c 0,10 -5,10 -10,10 0,-10 5,-10 10,-10 z"
         id="path16954"
         sodipodi:nodetypes="ccc" />
      <path
         style="font-variation-settings:normal;opacity:1;fill:#000000;fill-opacity:1;stroke:none;stroke-width:2;stroke-linecap:round;stroke-linejoin:round;stroke-miterlimit:4;stroke-dasharray:none;stroke-dashoffset:0;stroke-opacity:1;stop-color:#000000;stop-opacity:1"
         d="m 497,475 c 0,10 -5,10 -10,10 0,-10 5,-10 10,-10 z"
         id="path16956"
         sodipodi:nodetypes="ccc" />
      <path
         style="font-variation-settings:normal;opacity:1;fill:#000000;fill-opacity:1;stroke:none;stroke-width:2;stroke-linecap:round;stroke-linejoin:round;stroke-miterlimit:4;stroke-dasharray:none;stroke-dashoffset:0;stroke-opacity:1;stop-color:#000000;stop-opacity:1"
         d="m 497,485 c 0,10 -5,10 -10,10 0,-10 5,-10 10,-10 z"
         id="path16958"
         sodipodi:nodetypes="ccc" />
      <path
         style="font-variation-settings:normal;opacity:1;fill:#000000;fill-opacity:1;stroke:none;stroke-width:2;stroke-linecap:round;stroke-linejoin:round;stroke-miterlimit:4;stroke-dasharray:none;stroke-dashoffset:0;stroke-opacity:1;stop-color:#000000;stop-opacity:1"
         d="m 486,453 c 5,3 5,12 0,15 -5,-3 -5,-12 0,-15 z"
         id="path16960"
         sodipodi:nodetypes="ccc" />
      <path
         style="font-variation-settings:normal;opacity:1;fill:#000000;fill-opacity:1;stroke:#000000;stroke-width:3;stroke-linecap:round;stroke-linejoin:round;stroke-miterlimit:4;stroke-dasharray:none;stroke-dashoffset:0;stroke-opacity:1;stop-color:#000000;stop-opacity:1"
         d="M 476.5,465 V 440"
         id="path16962" />
      <path
         style="font-variation-settings:normal;opacity:1;fill:#000000;fill-opacity:1;stroke:#000000;stroke-width:3;stroke-linecap:round;stroke-linejoin:round;stroke-miterlimit:4;stroke-dasharray:none;stroke-dashoffset:0;stroke-opacity:1;stop-color:#000000;stop-opacity:1"
         d="M 495.5,465 V 440"
         id="path16964" />
      <path
         style="font-variation-settings:normal;opacity:1;fill:#000000;fill-opacity:1;stroke:#000000;stroke-width:3;stroke-linecap:round;stroke-linejoin:round;stroke-miterlimit:4;stroke-dasharray:none;stroke-dashoffset:0;stroke-opacity:1;stop-color:#000000;stop-opacity:1"
         d="M 486,460 V 433"
         id="path16966"
         sodipodi:nodetypes="cc" />
      <path
         style="font-variation-settings:normal;opacity:1;fill:#000000;fill-opacity:1;stroke:#000000;stroke-width:3;stroke-linecap:butt;stroke-linejoin:round;stroke-miterlimit:4;stroke-dasharray:none;stroke-dashoffset:0;stroke-opacity:1;marker-start:url(#Cap4);stop-color:#000000;stop-opacity:1"
         d="M 486,509.5 V 585"
         id="path16968"
         sodipodi:nodetypes="cc" />
      <path
         style="font-variation-settings:normal;opacity:1;fill:#000000;fill-opacity:1;stroke:none;stroke-width:2;stroke-linecap:round;stroke-linejoin:round;stroke-miterlimit:4;stroke-dasharray:none;stroke-dashoffset:0;stroke-opacity:1;stop-color:#000000;stop-opacity:1"
         d="m 485,505 c -5,0 -10,0 -10,-10 5,0 10,0 10,10 z"
         id="path16970"
         sodipodi:nodetypes="ccc" />
      <path
         style="font-variation-settings:normal;opacity:1;fill:#000000;fill-opacity:1;stroke:none;stroke-width:2;stroke-linecap:round;stroke-linejoin:round;stroke-miterlimit:4;stroke-dasharray:none;stroke-dashoffset:0;stroke-opacity:1;stop-color:#000000;stop-opacity:1"
         d="m 497,495 c 0,10 -5,10 -10,10 0,-10 5,-10 10,-10 z"
         id="path16972"
         sodipodi:nodetypes="ccc" />
    </g>
    <g
       id="_pea">
      <use
         x="0"
         y="0"
         xlink:href="#_trigo"
         id="use16990"
         transform="matrix(0.5,0,0,0.5,166,250)" />
      <use
         x="0"
         y="0"
         xlink:href="#_trigo"
         id="use16992"
         transform="matrix(0.5,0,0,0.5,179.5,242.5)" />
      <use
         x="0"
         y="0"
         xlink:href="#_trigo"
         id="use16994"
         transform="matrix(0.5,0,0,0.5,192.5,247.5)" />
      <path
         style="font-variation-settings:normal;opacity:1;fill:#000000;fill-opacity:1;stroke:#ffffff;stroke-width:2;stroke-linecap:round;stroke-linejoin:round;stroke-miterlimit:4;stroke-dasharray:none;stroke-dashoffset:0;stroke-opacity:1;stop-color:#000000;stop-opacity:1"
         d="m 475,525 20,-25 c 0,0 13,8 23,-2 10,-10 2,-28 -13,-28 20,-5 37.31812,16.52282 25,35 -8.88272,13.32408 -25,10 -32,7 l -15,20 c -3,1 -8.15311,-0.89151 -8,-7 z"
         id="path18504"
         sodipodi:nodetypes="ccscsccc" />
      <path
         style="font-variation-settings:normal;opacity:1;fill:#000000;fill-opacity:1;stroke:none;stroke-width:2;stroke-linecap:round;stroke-linejoin:round;stroke-miterlimit:4;stroke-dasharray:none;stroke-dashoffset:0;stroke-opacity:1;stop-color:#000000;stop-opacity:1"
         d="m 475,525 20,-25 c 0,0 13,8 23,-2 10,-10 2,-28 -13,-28 20,-5 37.31812,16.52282 25,35 -8.88272,13.32408 -25,10 -32,7 l -15,20 c -3,1 -8.15311,-0.89151 -8,-7 z"
         id="foice"
         sodipodi:nodetypes="ccscsccc" />
      <path
         id="rect32395"
         style="opacity:1;fill:#ffffff;stroke-width:2;stroke-linecap:round;stroke-linejoin:round;stop-color:#000000;stop-opacity:1"
         d="m 475,540 v -2 h 5 v 7 z"
         sodipodi:nodetypes="ccccc" />
    </g>
    <g
       id="_bou"
       transform="translate(0,-2.9999885)">
      <path
         style="fill:#000000;stroke:none;stroke-width:2;stroke-linecap:round;stroke-linejoin:round;stroke-opacity:1;stop-color:#000000"
         d="m 100,535 c 6.05479,0 22,-10 22,-20 0,-5 3,-10 3,-15 0,-20 -5,-30 -25,-30 -20,0 -25,10 -25,30 0,5 3,10 3,15 0,10 16.12832,20 22,20 z"
         id="path1241-6"
         sodipodi:nodetypes="ssszsss" />
      <g
         id="__colar">
        <circle
           style="font-variation-settings:normal;opacity:1;fill:#000000;fill-opacity:1;stroke:none;stroke-width:2;stroke-linecap:round;stroke-linejoin:round;stroke-miterlimit:4;stroke-dasharray:none;stroke-dashoffset:0;stroke-opacity:1;stop-color:#000000;stop-opacity:1"
           id="circle24757"
           cx="123.5"
           cy="527"
           r="2.5" />
        <circle
           style="font-variation-settings:normal;opacity:1;fill:#000000;fill-opacity:1;stroke:none;stroke-width:2;stroke-linecap:round;stroke-linejoin:round;stroke-miterlimit:4;stroke-dasharray:none;stroke-dashoffset:0;stroke-opacity:1;stop-color:#000000;stop-opacity:1"
           id="circle24759"
           cx="126"
           cy="532"
           r="2.5" />
        <circle
           style="font-variation-settings:normal;opacity:1;fill:#000000;fill-opacity:1;stroke:none;stroke-width:2;stroke-linecap:round;stroke-linejoin:round;stroke-miterlimit:4;stroke-dasharray:none;stroke-dashoffset:0;stroke-opacity:1;stop-color:#000000;stop-opacity:1"
           id="circle24761"
           cx="125"
           cy="537.5"
           r="2.5" />
        <circle
           style="font-variation-settings:normal;opacity:1;fill:#000000;fill-opacity:1;stroke:none;stroke-width:2;stroke-linecap:round;stroke-linejoin:round;stroke-miterlimit:4;stroke-dasharray:none;stroke-dashoffset:0;stroke-opacity:1;stop-color:#000000;stop-opacity:1"
           id="circle24763"
           cx="120.5"
           cy="540.5"
           r="2.5" />
        <circle
           style="font-variation-settings:normal;opacity:1;fill:#000000;fill-opacity:1;stroke:none;stroke-width:2;stroke-linecap:round;stroke-linejoin:round;stroke-miterlimit:4;stroke-dasharray:none;stroke-dashoffset:0;stroke-opacity:1;stop-color:#000000;stop-opacity:1"
           id="circle24765"
           cx="116"
           cy="543.5"
           r="2.5" />
        <circle
           style="font-variation-settings:normal;opacity:1;fill:#000000;fill-opacity:1;stroke:none;stroke-width:2;stroke-linecap:round;stroke-linejoin:round;stroke-miterlimit:4;stroke-dasharray:none;stroke-dashoffset:0;stroke-opacity:1;stop-color:#000000;stop-opacity:1"
           id="circle24767"
           cx="110.5"
           cy="545"
           r="2.5" />
      </g>
      <circle
         style="font-variation-settings:normal;opacity:1;fill:#000000;fill-opacity:1;stroke:none;stroke-width:2;stroke-linecap:round;stroke-linejoin:round;stroke-miterlimit:4;stroke-dasharray:none;stroke-dashoffset:0;stroke-opacity:1;stop-color:#000000;stop-opacity:1"
         id="path25495"
         cx="100.5"
         cy="547.5"
         r="7.5" />
      <use
         x="0"
         y="0"
         xlink:href="#__colar"
         id="use26957"
         transform="matrix(-1,0,0,1,201,0)" />
      <path
         style="font-variation-settings:normal;opacity:1;fill:#000000;fill-opacity:1;stroke:#ffffff;stroke-width:2;stroke-linecap:round;stroke-linejoin:round;stroke-miterlimit:4;stroke-dasharray:none;stroke-dashoffset:0;stroke-opacity:1;stop-color:#000000;stop-opacity:1"
         d="m 70,465 c -3.850521,3.85052 -5,8 -5,13 0,5 0,12 15,12 5,0 35,-5 35,-5 0,0 -20,-25 -25,-25 -5,0 -17.150932,2.15093 -20,5 z"
         id="path26959"
         sodipodi:nodetypes="ssscss" />
      <path
         style="font-variation-settings:normal;opacity:1;fill:#000000;fill-opacity:1;stroke:#ffffff;stroke-width:2;stroke-linecap:round;stroke-linejoin:round;stroke-miterlimit:4;stroke-dasharray:none;stroke-dashoffset:0;stroke-opacity:1;stop-color:#000000;stop-opacity:1"
         d="m 80,461 c 0,5 5.513166,10.83772 15,14 15,5 20,15 30,15 10,0 10.57844,-9.01405 10,-15 -0.68549,-7.09379 -9.26066,-12.88608 -25,-15 -9.91101,-1.33113 -20,0 -30,1 z"
         id="path27030"
         sodipodi:nodetypes="cssssc" />
    </g>
  </g>
</svg>
