<svg width="512" height="320" version="1.1" viewBox="0 0 512 320" xmlns="http://www.w3.org/2000/svg">
<defs>
<linearGradient id="linearGradient330" x1="547" x2="547" y1="127" y2="-23" gradientTransform="matrix(.7 0 0 .9 -380 20)" gradientUnits="userSpaceOnUse">
<stop stop-color="#fff" offset="0"/>
<stop stop-color="#1af" offset="1"/>
</linearGradient>
<linearGradient id="linearGradient221" x1="547" x2="547" y1="127" y2="-23" gradientTransform="matrix(.7 0 0 .2 -380 261)" gradientUnits="userSpaceOnUse">
<stop stop-color="#5c6" offset="0"/>
<stop stop-color="#6e5" offset="1"/>
</linearGradient>
</defs>
<path transform="matrix(.7 0 0 .4 -428 1)" d="m533 100 17 44-44-16-5 49-31-37-26 39-11-46-41 25 11-48-47 3 31-36-43-22 44-18-27-36 46 4-7-45 39 25 14-44 23 40 33-32 .6 46 48-10-23 42 46 9-39 27 37 31z" fill="#f00" fill-rule="evenodd" style="paint-order:fill markers stroke"/>
<rect width="512" height="256" fill="url(#linearGradient330)" fill-rule="evenodd" style="paint-order:fill markers stroke"/>
<g transform="translate(-114)" stroke-width="4">
<path d="m50 255 205-226 194 226z" fill="#1592d6" fill-rule="evenodd" style="paint-order:fill markers stroke"/>
<path d="m50 255h150l55-226z" fill="#1c88c2"/>
</g>
<g transform="translate(6e-4 476)" fill="#fff" fill-opacity=".5">
<g fill="#fff" fill-opacity=".5" fill-rule="evenodd">
<path d="m488-400c-13 0-24 11-24 24v2c-6-5-13-8-21-8-18 0-32 14-32 32v4c-4-3-9-4-15-4-16 0-28 12-28 28v7c-4-2-8-3-12-3-11 0-20 6-25 14-4-2-8-3-12-3-9 0-17 5-21 13-4-11-14-19-27-19-7 0-13 2-18 6-5-11-16-19-29-19-16 0-28 11-31 26-6-18-23-31-43-31-13 0-25 6-33 15-2-12-12-21-24-21-4 0-8 1-12 3v-.2c0-13-11-24-24-24-.7 0-1 .05-2 .1-1-12-11-22-24-22-4 0-8 1-11 3-4-6-12-11-20-11-13 0-24 11-24 24v152c0 13 11 24 24 24 4 0 8-1 11-3 4 6 12 11 20 11 .7 0 1-.05 2-.1 1 12 11 22 24 22 4 0 8-1 12-3v.2c0 13 11 24 24 24 9 0 17-5 21-12 8 11 21 18 36 18 19 0 36-12 42-29v2c0 18 14 32 32 32 8 0 15-3 20-7 3 12 14 20 27 20 10 0 20-6 24-14 2 11 12 20 24 20 10 0 19-6 22-15 4 3 9 4 15 4 16 0 28-12 28-28v-7c4 2 8 3 12 3 16 0 28-12 28-28v-10c5 4 12 6 19 6 15 0 27-10 31-23 4 3 9 5 14 5 13 0 24-11 24-24v-152c0-13-11-24-24-24z" fill="#fff" fill-opacity=".5" style="paint-order:fill markers stroke"/>
</g>
</g>
<g transform="translate(0,350)" fill="#4da738">
<g fill-rule="evenodd">
<rect x="472" y="-200" width="40" height="123" rx="20" style="paint-order:fill markers stroke"/>
<rect x="-20" y="-179" width="40" height="123" rx="20" style="paint-order:fill markers stroke"/>
<rect x="10" y="-165" width="40" height="123" rx="20" style="paint-order:fill markers stroke"/>
<rect x="46" y="-160" width="40" height="123" rx="20" style="paint-order:fill markers stroke"/>
<rect x="77" y="-164" width="40" height="123" rx="20" style="paint-order:fill markers stroke"/>
<rect x="109" y="-173" width="40" height="123" rx="20" style="paint-order:fill markers stroke"/>
<rect x="139" y="-182" width="40" height="123" rx="20" style="paint-order:fill markers stroke"/>
<rect x="159" y="-185" width="40" height="123" rx="20" style="paint-order:fill markers stroke"/>
<rect x="182" y="-192" width="40" height="123" rx="20" style="paint-order:fill markers stroke"/>
<rect x="214" y="-185" width="40" height="123" rx="20" style="paint-order:fill markers stroke"/>
<rect x="237" y="-175" width="40" height="123" rx="20" style="paint-order:fill markers stroke"/>
<rect x="267" y="-162" width="40" height="123" rx="20" style="paint-order:fill markers stroke"/>
<rect x="303" y="-158" width="40" height="123" rx="20" style="paint-order:fill markers stroke"/>
<rect x="337" y="-163" width="40" height="123" rx="20" style="paint-order:fill markers stroke"/>
<rect x="371" y="-167" width="40" height="123" rx="20" style="paint-order:fill markers stroke"/>
<rect x="406" y="-179" width="40" height="123" rx="20" style="paint-order:fill markers stroke"/>
<rect x="440" y="-189" width="40" height="123" rx="20" style="paint-order:fill markers stroke"/>
</g>
<path d="m450-210c-2 14 8 27 17 40 6-12 18-26 17-40-4 .6-8 .2-11 7-.3-6-2-10-6-13-5 4-6 8-6 13-4-6-8-6-11-7z"/>
<path d="m286-173c-2 14 8 27 17 40 6-12 18-26 17-40-4 .6-8 .2-11 7-.3-6-2-10-6-13-5 4-6 8-6 13-4-6-8-6-11-7z"/>
<path d="m383-185c-2 14 8 27 17 40 6-12 18-26 17-40-4 .6-8 .2-11 7-.3-6-2-10-6-13-5 4-6 8-6 13-4-6-8-6-11-7z"/>
<path d="m214-197c-2 14 8 27 17 40 6-12 18-26 17-40-4 .6-8 .2-11 7-.3-6-2-10-6-13-5 4-6 8-6 13-4-6-8-6-11-7z"/>
<path d="m122-192c-2 14 8 27 17 40 6-12 18-26 17-40-4 .6-8 .2-11 7-.3-6-2-10-6-13-5 4-6 8-6 13-4-6-8-6-11-7z"/>
<path d="m36-173c-2 14 8 27 17 40 6-12 18-26 17-40-4 .6-8 .2-11 7-.3-6-2-10-6-13-5 4-6 8-6 13-4-6-8-6-11-7z"/>
</g>
<g transform="translate(-520,-338)">
<rect x="813" y="469" width="11" height="164" fill="#955"/>
<rect x="823" y="469" width="14" height="164" fill="#d56"/>
<rect x="943" y="469" width="11" height="164" fill="#955"/>
<rect x="953" y="469" width="14" height="164" fill="#d56"/>
<rect x="876" y="469" width="11" height="25" fill="#955"/>
<rect x="886" y="469" width="14" height="25" fill="#d56"/>
<rect x="786" y="489" width="14" height="15" fill="#955"/>
<rect x="797" y="489" width="210" height="15" fill="#d56"/>
<rect x="783" y="449" width="14" height="20" fill="#955"/>
<rect x="795" y="449" width="210" height="20" fill="#d56"/>
<rect x="783" y="435" width="222" height="15" fill="#356"/>
</g>
<g transform="translate(-1e3 -616)" fill="#8c0">
<g transform="translate(1e3 1e3)" fill-rule="evenodd">
<path d="m492-200c-9 0-17 7-19 15-3-3-8-4-13-4-10 0-18 7-20 16-4-4-9-6-14-6-11 0-19 8-20 19-4-4-9-7-15-7-8 0-15 5-18 12-4-5-9-8-16-8-8 0-16 5-18 12-4-4-9-7-16-7-7 0-14 4-17 10-3-8-10-14-19-14-4 0-7 1-10 3-2-9-10-16-20-16-2 0-4 .3-5 .7-3-6-10-11-18-11-5 0-10 2-14 5-3-7-10-12-18-12-7 0-13 3-16 8-2-.8-4-1-7-1-5 0-9 2-13 4-2-.9-5-1-7-1-8 0-16 5-19 13-3-2-7-4-11-4-9 0-16 6-19 14-3-3-8-5-13-5-7 0-14 4-17 10-4-3-8-6-14-6-7 0-13 4-17 9-2-8-10-14-19-14-4 0-7 1-10 3-2-10-10-17-20-17-11 0-20 9-20 20v83c0 11 9 20 20 20 4 0 7-1 10-3 2 10 10 17 20 17 7 0 13-4 17-9 2 8 10 14 19 14 7 0 14-4 17-10 4 3 8 6 14 6 9 0 16-6 19-14 3 3 8 5 13 5 8 0 16-5 19-13 3 2 7 4 11 4 5 0 9-2 13-4 2 .9 5 1 7 1 7 0 13-3 16-8 2 .8 4 1 7 1 5 0 10-2 14-5 3 7 10 12 18 12 2 0 4-.3 5-.7 3 6 10 11 18 11 4 0 7-1 10-3 2 9 10 16 20 16 7 0 14-4 17-10 3 8 10 14 19 14 8 0 16-5 18-12 4 4 9 7 16 7 8 0 15-5 18-12 4 5 9 8 16 8 11 0 19-8 20-19 4 4 9 7 15 7 10 0 18-7 20-16 4 4 9 6 14 6 9 0 17-7 19-15 3 3 8 4 13 4 11 0 20-9 20-20v-83c0-11-9-20-20-20z" style="paint-order:fill markers stroke"/>
</g>
<path d="m1e3 843c-2 14 8 27 17 40 6-12 18-26 17-40-4 .6-8 .2-11 7-.3-6-2-10-6-13-5 4-6 8-6 13-4-6-8-6-11-7zm86-19c-2 14 8 27 17 40 6-12 18-26 17-40-4 .6-8 .2-11 7-.3-6-2-10-6-13-5 4-6 8-6 13-4-6-8-6-11-7zm92-5c-2 14 8 27 17 40 6-12 18-26 17-40-4 .6-8 .2-11 7-.3-6-2-10-6-13-5 4-6 8-6 13-4-6-8-6-11-7zm169 12c-2 14 8 27 17 40 6-12 18-26 17-40-4 .6-8 .2-11 7-.3-6-2-10-6-13-5 4-6 8-6 13-4-6-8-6-11-7zm-97 12c-2 14 8 27 17 40 6-12 18-26 17-40-4 .6-8 .2-11 7-.3-6-2-10-6-13-5 4-6 8-6 13-4-6-8-6-11-7zm164-37c-2 14 8 27 17 40 6-12 18-26 17-40-4 .6-8 .2-11 7-.3-6-2-10-6-13-5 4-6 8-6 13-4-6-8-6-11-7z"/>
<g transform="translate(2e3 1e3)" fill-rule="evenodd">
<path d="m492-200c-9 0-17 7-19 15-3-3-8-4-13-4-10 0-18 7-20 16-4-4-9-6-14-6-11 0-19 8-20 19-4-4-9-7-15-7-8 0-15 5-18 12-4-5-9-8-16-8-8 0-16 5-18 12-4-4-9-7-16-7-7 0-14 4-17 10-3-8-10-14-19-14-4 0-7 1-10 3-2-9-10-16-20-16-2 0-4 .3-5 .7-3-6-10-11-18-11-5 0-10 2-14 5-3-7-10-12-18-12-7 0-13 3-16 8-2-.8-4-1-7-1-5 0-9 2-13 4-2-.9-5-1-7-1-8 0-16 5-19 13-3-2-7-4-11-4-9 0-16 6-19 14-3-3-8-5-13-5-7 0-14 4-17 10-4-3-8-6-14-6-7 0-13 4-17 9-2-8-10-14-19-14-4 0-7 1-10 3-2-10-10-17-20-17-11 0-20 9-20 20v83c0 11 9 20 20 20 4 0 7-1 10-3 2 10 10 17 20 17 7 0 13-4 17-9 2 8 10 14 19 14 7 0 14-4 17-10 4 3 8 6 14 6 9 0 16-6 19-14 3 3 8 5 13 5 8 0 16-5 19-13 3 2 7 4 11 4 5 0 9-2 13-4 2 .9 5 1 7 1 7 0 13-3 16-8 2 .8 4 1 7 1 5 0 10-2 14-5 3 7 10 12 18 12 2 0 4-.3 5-.7 3 6 10 11 18 11 4 0 7-1 10-3 2 9 10 16 20 16 7 0 14-4 17-10 3 8 10 14 19 14 8 0 16-5 18-12 4 4 9 7 16 7 8 0 15-5 18-12 4 5 9 8 16 8 11 0 19-8 20-19 4 4 9 7 15 7 10 0 18-7 20-16 4 4 9 6 14 6 9 0 17-7 19-15 3 3 8 4 13 4 11 0 20-9 20-20v-83c0-11-9-20-20-20z" style="paint-order:fill markers stroke"/>
</g>
<path d="m2e3 843c-2 14 8 27 17 40 6-12 18-26 17-40-4 .6-8 .2-11 7-.3-6-2-10-6-13-5 4-6 8-6 13-4-6-8-6-11-7zm86-19c-2 14 8 27 17 40 6-12 18-26 17-40-4 .6-8 .2-11 7-.3-6-2-10-6-13-5 4-6 8-6 13-4-6-8-6-11-7zm92-5c-2 14 8 27 17 40 6-12 18-26 17-40-4 .6-8 .2-11 7-.3-6-2-10-6-13-5 4-6 8-6 13-4-6-8-6-11-7zm169 12c-2 14 8 27 17 40 6-12 18-26 17-40-4 .6-8 .2-11 7-.3-6-2-10-6-13-5 4-6 8-6 13-4-6-8-6-11-7zm-97 12c-2 14 8 27 17 40 6-12 18-26 17-40-4 .6-8 .2-11 7-.3-6-2-10-6-13-5 4-6 8-6 13-4-6-8-6-11-7zm164-37c-2 14 8 27 17 40 6-12 18-26 17-40-4 .6-8 .2-11 7-.3-6-2-10-6-13-5 4-6 8-6 13-4-6-8-6-11-7z"/>
</g>
<rect y="256" width="512" height="64" fill="url(#linearGradient221)" fill-rule="evenodd" stroke-width=".5" style="paint-order:fill markers stroke"/>
<g transform="matrix(.2 0 0 .2 223 476)" fill-rule="evenodd">
<circle cx="-8" cy="-187" r="46" fill="#6d6e70" stroke="#404041" stroke-width="4" style="paint-order:fill markers stroke"/>
<ellipse cx="-8" cy="-192" rx="43" ry="39" fill="#bbbdbf" style="paint-order:fill markers stroke"/>
<ellipse transform="matrix(.8 -.5 .5 .9 0 0)" cx="79" cy="-198" rx="14" ry="4" fill="#fff" style="paint-order:fill markers stroke"/>
</g>
<g transform="matrix(.3 0 0 .3 255 246)" fill-rule="evenodd">
<ellipse cx="108" cy="710" rx="43" ry="44" fill="#e6e7e8" style="paint-order:normal"/>
<g fill="#fff">
<circle cx="107" cy="703" r="33" style="paint-order:normal"/>
<circle cx="131" cy="663" r="28" style="paint-order:normal"/>
<ellipse cx="60" cy="715" rx="35" ry="32" style="paint-order:normal"/>
<ellipse cx="81" cy="663" rx="31" ry="35" style="paint-order:normal"/>
</g>
</g>
<g fill-opacity=".3" fill-rule="evenodd">
<rect x="225" y="261" width="72" height="9" rx="36" style="paint-order:fill markers stroke"/>
<rect x="81" y="260" width="72" height="9" rx="36" style="paint-order:fill markers stroke"/>
<rect x="153" y="308" width="72" height="9" rx="36" style="paint-order:fill markers stroke"/>
<rect x="424" y="284" width="72" height="9" rx="36" style="paint-order:fill markers stroke"/>
<rect x="11" y="308" width="72" height="9" rx="36" style="paint-order:fill markers stroke"/>
</g>
<g transform="matrix(.7 0 0 .7 390 -136)">
<g transform="translate(-126 -284)">
<rect x="-290" y="726" width="69" height="59" rx="35" ry="30" fill="#4e4262" stroke-width="3"/>
<rect x="-282" y="726" width="61" height="56" rx="30" ry="28" fill="#65567b" stroke-width="3"/>
<g transform="translate(-831 705)" stroke-width=".8">
<rect x="586" y="123" width="13" height="9" fill="#6d312a"/>
<rect x="598" y="123" width="25" height="9" fill="#834339"/>
<rect x="534" y="123" width="13" height="9" fill="#6d312a"/>
<rect x="545" y="123" width="25" height="9" fill="#834339"/>
</g>
<rect x="-282" y="793" width="56" height="32" fill="#4e4262" stroke-width="0"/>
<rect x="-268" y="817" width="42" height="8" fill="#65567b"/>
<rect x="-268" y="793" width="42" height="21" fill="#65567b"/>
<rect x="-288" y="760" width="61" height="33" fill="#dd765b" stroke-width=".7"/>
<rect x="-271" y="777" width="44" height="16" fill="#f9b087" stroke-width=".7"/>
<rect x="-295" y="755" width="31" height="18" rx="5" fill="#8f734c"/>
<rect x="-272" y="755" width="55" height="18" rx="5" fill="#9e8761"/>
<path d="m-234 788-10 22-13-22z" fill="#5e2f34" fill-rule="evenodd" style="paint-order:fill markers stroke"/>
<path d="m-228 789-2-7-11-2-19 2-2 7" fill="none" stroke="#5e2f34" stroke-width="3"/>
</g>
<g transform="translate(-32 -67)">
<g transform="matrix(.9 0 0 .9 -421 -79)">
<ellipse cx="93" cy="723" rx="43" ry="35" fill="#6d6e70" fill-rule="evenodd" style="paint-order:fill markers stroke"/>
<ellipse cx="101" cy="723" rx="35" ry="32" fill="#bbbdbf" fill-rule="evenodd" style="paint-order:fill markers stroke"/>
<rect x="87" y="679" width="8" height="12" fill="#6d6e70" stroke-width=".6"/>
<rect x="95" y="679" width="10" height="12" fill="#bbbdbf" stroke-width=".6"/>
</g>
<rect x="-312" y="580" width="15" height="18" fill="#dd765b" stroke-width=".8"/>
<rect x="-299" y="580" width="7" height="18" fill="#f9b087" stroke-width=".5"/>
<rect x="-376" y="580" width="11" height="18" fill="#dd765b" stroke-width=".7"/>
<rect x="-366" y="580" width="14" height="18" fill="#f9b087" stroke-width=".7"/>
</g>
</g>
<g transform="matrix(.7 0 0 .7 97 -122)">
<g transform="translate(116 -202)">
<rect x="-224" y="693" width="69" height="59" rx="35" ry="30" fill="#4e4262" stroke-width="3"/>
<rect x="-216" y="693" width="61" height="56" rx="30" ry="28" fill="#65567b" stroke-width="3"/>
<g transform="translate(-765 672)" stroke-width=".8">
<rect x="586" y="123" width="13" height="9" fill="#6d312a"/>
<rect x="598" y="123" width="25" height="9" fill="#834339"/>
<rect x="534" y="123" width="13" height="9" fill="#6d312a"/>
<rect x="545" y="123" width="25" height="9" fill="#834339"/>
</g>
<rect x="-216" y="760" width="56" height="32" fill="#4e4262" stroke-width="0"/>
<rect x="-202" y="784" width="42" height="8" fill="#65567b"/>
<rect x="-202" y="760" width="42" height="21" fill="#65567b"/>
<rect x="-222" y="727" width="61" height="33" fill="#dd765b" stroke-width=".7"/>
<rect x="-205" y="744" width="44" height="16" fill="#f9b087" stroke-width=".7"/>
<rect x="-229" y="722" width="31" height="18" rx="5" fill="#8f734c"/>
<rect x="-206" y="722" width="55" height="18" rx="5" fill="#9e8761"/>
<path d="m-168 755-10 22-13-22z" fill="#5e2f34" fill-rule="evenodd" style="paint-order:fill markers stroke"/>
<path d="m-162 756-2-7-11-2-19 2-2 7" fill="none" stroke="#5e2f34" stroke-width="3"/>
</g>
<g transform="translate(-836 485)">
<rect x="709" y="59" width="134" height="38" rx="15" ry="19" fill="#75492c" fill-rule="evenodd" style="paint-order:fill markers stroke"/>
<rect x="814" y="59" width="30" height="38" rx="15" ry="19" fill="#d5a878" fill-rule="evenodd" style="paint-order:fill markers stroke"/>
<g stroke-width=".8">
<rect x="772" y="92" width="11" height="13" fill="#dd765b"/>
<rect x="783" y="92" width="14" height="13" fill="#f9b087"/>
<rect x="727" y="52" width="11" height="13" fill="#dd765b"/>
<rect x="738" y="52" width="14" height="13" fill="#f9b087"/>
</g>
</g>
<path d="m-9 560c-.4-1 1-1 2-1 1 1 .9 4-.06 5-2 2-4 1-6-1-2-3-.9-8 2-10 3-3 8-1 10 3 3 6 1 13-3 16" fill="none" stroke="#75492c" stroke-width="2"/>
</g>
<g transform="matrix(.7 0 0 .7 459 -102)">
<g transform="translate(174 -23)">
<rect x="-274" y="693" width="69" height="59" rx="35" ry="30" fill="#4e4262" stroke-width="3"/>
<rect x="-266" y="693" width="61" height="56" rx="30" ry="28" fill="#65567b" stroke-width="3"/>
<g transform="translate(-815 672)" stroke-width=".8">
<rect x="586" y="123" width="13" height="9" fill="#6d312a"/>
<rect x="598" y="123" width="25" height="9" fill="#834339"/>
<rect x="534" y="123" width="13" height="9" fill="#6d312a"/>
<rect x="545" y="123" width="25" height="9" fill="#834339"/>
</g>
<rect x="-266" y="760" width="56" height="32" fill="#4e4262" stroke-width="0"/>
<rect x="-252" y="784" width="42" height="8" fill="#65567b"/>
<rect x="-252" y="760" width="42" height="21" fill="#65567b"/>
<rect x="-272" y="727" width="61" height="33" fill="#dd765b" stroke-width=".7"/>
<rect x="-255" y="744" width="44" height="16" fill="#f9b087" stroke-width=".7"/>
<rect x="-279" y="722" width="31" height="18" rx="5" fill="#8f734c"/>
<rect x="-256" y="722" width="55" height="18" rx="5" fill="#9e8761"/>
<path d="m-218 755-10 22-13-22z" fill="#5e2f34" fill-rule="evenodd" style="paint-order:fill markers stroke"/>
<path d="m-212 756-2-7-11-2-19 2-2 7" fill="none" stroke="#5e2f34" stroke-width="3"/>
</g>
<g transform="translate(368 -57)">
<rect x="-402" y="786" width="11" height="18" fill="#dd765b" stroke-width=".7"/>
<rect x="-392" y="786" width="14" height="18" fill="#f9b087" stroke-width=".7"/>
<path d="m-420 740a29 45 0 0129 45 29 45 0 01-29 45" fill="none" stroke="#75492c" stroke-width="7" style="paint-order:fill markers stroke"/>
<g transform="translate(68,-99)">
<rect x="-514" y="881" width="74" height="5" ry="2" fill="#75492c" fill-rule="evenodd" stroke-width=".6" style="paint-order:fill markers stroke"/>
<g fill="#e6e6e6">
<path d="m-444 890 14-6-14-7z" stroke-width=".6"/>
<path d="m-519 875 6 6 15-.2-6-6z"/>
<path d="m-512 885-6 6 15-.2 6-6z"/>
</g>
</g>
<rect x="-471" y="774" width="11" height="18" fill="#dd765b" stroke-width=".7"/>
<rect x="-461" y="774" width="14" height="18" fill="#f9b087" stroke-width=".7"/>
</g>
</g>
<g transform="matrix(.7 0 0 .7 -469 26)">
<rect transform="scale(-1,1)" x="-1e3" y="323" width="11" height="18" fill="#cd9c85" stroke-width=".7"/>
<rect transform="scale(-1,1)" x="-1e3" y="323" width="14" height="18" fill="#edc8b7" stroke-width=".7"/>
<g transform="translate(2e3 341)" stroke-width=".8">
<rect transform="scale(-1,1)" x="519" y="13" width="13" height="9" fill="#a9a7aa"/>
<rect transform="scale(-1,1)" x="530" y="13" width="25" height="9" fill="#ececec"/>
<rect transform="scale(-1,1)" x="469" y="13" width="13" height="9" fill="#a9a7aa"/>
<rect transform="scale(-1,1)" x="478" y="13" width="25" height="9" fill="#ececec"/>
</g>
<rect transform="scale(-1,1)" x="-1e3" y="318" width="56" height="32" fill="#a9a7aa" stroke-width="0"/>
<rect transform="scale(-1,1)" x="-1e3" y="342" width="42" height="8" fill="#ececec"/>
<rect transform="scale(-1,1)" x="-1e3" y="318" width="42" height="21" fill="#f0f0f0" fill-opacity=".9"/>
<g stroke-width=".7">
<rect transform="scale(-1,1)" x="-1e3" y="323" width="11" height="18" fill="#cd9c85"/>
<rect transform="scale(-1,1)" x="-1e3" y="323" width="14" height="18" fill="#edc8b7"/>
<rect transform="scale(-1,1)" x="-1e3" y="286" width="61" height="33" fill="#cd9c85"/>
<rect transform="scale(-1,1)" x="-1e3" y="303" width="44" height="16" fill="#edc8b7"/>
</g>
<path d="m1e3 300 58-50 56 50z" fill="#624c3e" fill-rule="evenodd" stroke-width=".9" style="paint-order:fill markers stroke"/>
<path d="m1e3 300h82l-24-50z" fill="#a47c60"/>
<g transform="translate(636 -594)">
<g transform="translate(-45,137)" fill-rule="evenodd">
<rect transform="scale(-1,1)" x="-739" y="761" width="32" height="42" rx="16" ry="21" fill="#e0a80e" style="paint-order:fill markers stroke"/>
<rect transform="scale(-1,1)" x="-737" y="763" width="72" height="38" rx="15" ry="19" fill="#876202" style="paint-order:fill markers stroke"/>
<rect transform="scale(-1,1)" x="-687" y="761" width="32" height="42" rx="16" ry="21" fill="#c39a2b" style="paint-order:fill markers stroke"/>
<rect transform="scale(-1,1)" x="-685" y="763" width="72" height="38" rx="15" ry="19" fill="#876202" style="paint-order:fill markers stroke"/>
<rect transform="scale(-1,1)" x="-634" y="762" width="30" height="40" rx="15" ry="20" fill="#540" stroke="#c39a2b" stroke-width="2" style="paint-order:fill markers stroke"/>
</g>
<g transform="translate(131,285)" stroke-width=".8">
<rect transform="scale(-1,1)" x="-565" y="636" width="11" height="22" fill="#edc8b7"/>
<rect transform="scale(-1,1)" x="-554" y="636" width="14" height="22" fill="#cd9c85"/>
<rect transform="scale(-1,1)" x="-500" y="648" width="11" height="13" fill="#edc8b7"/>
<rect transform="scale(-1,1)" x="-489" y="648" width="14" height="13" fill="#cd9c85"/>
</g>
</g>
</g>
<g transform="matrix(.7 0 0 .7 348 -225)">
<rect x="-159" y="567" width="69" height="59" rx="35" ry="30" fill="#4e4262" stroke-width="3"/>
<rect x="-151" y="567" width="61" height="56" rx="30" ry="28" fill="#65567b" stroke-width="3"/>
<g transform="translate(-700 546)">
<rect x="600" y="92" width="11" height="18" fill="#dd765b" stroke-width=".7"/>
<rect x="610" y="92" width="14" height="18" fill="#f9b087" stroke-width=".7"/>
<g stroke-width=".8">
<rect x="586" y="123" width="13" height="9" fill="#6d312a"/>
<rect x="598" y="123" width="25" height="9" fill="#834339"/>
<rect x="534" y="123" width="13" height="9" fill="#6d312a"/>
<rect x="545" y="123" width="25" height="9" fill="#834339"/>
</g>
</g>
<rect x="-151" y="634" width="56" height="32" fill="#4e4262" stroke-width="0"/>
<rect x="-137" y="658" width="42" height="8" fill="#65567b"/>
<rect x="-137" y="634" width="42" height="21" fill="#65567b"/>
<rect x="-157" y="601" width="61" height="33" fill="#dd765b" stroke-width=".7"/>
<rect x="-140" y="618" width="44" height="16" fill="#f9b087" stroke-width=".7"/>
<rect x="-164" y="596" width="31" height="18" rx="5" fill="#8f734c"/>
<rect x="-141" y="596" width="55" height="18" rx="5" fill="#9e8761"/>
<path d="m-103 629-10 22-13-22z" fill="#5e2f34" fill-rule="evenodd" style="paint-order:fill markers stroke"/>
<path d="m-97 630-2-7-11-2-19 2-2 7" fill="none" stroke="#5e2f34" stroke-width="3"/>
<g transform="translate(165 114)">
<rect x="-400" y="493" width="120" height="8" ry="4" fill="#75492c" fill-rule="evenodd" style="paint-order:fill markers stroke"/>
<path d="m-284 497h45l-40-15z" fill="#e6e6e6"/>
<path d="m-284 497h45l-40 15z" fill="#b3b3b3"/>
<rect x="-331" y="490" width="11" height="18" fill="#dd765b" stroke-width=".7"/>
<rect x="-321" y="490" width="14" height="18" fill="#f9b087" stroke-width=".7"/>
</g>
</g>
<g transform="matrix(.7 0 0 .7 495 -235)">
<rect x="-461" y="646" width="69" height="59" rx="35" ry="30" fill="#4e4262" stroke-width="3"/>
<rect x="-453" y="646" width="61" height="56" rx="30" ry="28" fill="#65567b" stroke-width="3"/>
<g transform="translate(-1e3 625)">
<rect x="600" y="92" width="11" height="18" fill="#dd765b" stroke-width=".7"/>
<rect x="610" y="92" width="14" height="18" fill="#f9b087" stroke-width=".7"/>
<g stroke-width=".8">
<rect x="586" y="123" width="13" height="9" fill="#6d312a"/>
<rect x="598" y="123" width="25" height="9" fill="#834339"/>
<rect x="534" y="123" width="13" height="9" fill="#6d312a"/>
<rect x="545" y="123" width="25" height="9" fill="#834339"/>
</g>
</g>
<rect x="-453" y="713" width="56" height="32" fill="#4e4262" stroke-width="0"/>
<rect x="-439" y="737" width="42" height="8" fill="#65567b"/>
<rect x="-439" y="713" width="42" height="21" fill="#65567b"/>
<rect x="-459" y="680" width="61" height="33" fill="#dd765b" stroke-width=".7"/>
<rect x="-442" y="697" width="44" height="16" fill="#f9b087" stroke-width=".7"/>
<rect x="-466" y="675" width="31" height="18" rx="5" fill="#8f734c"/>
<rect x="-443" y="675" width="55" height="18" rx="5" fill="#9e8761"/>
<path d="m-405 708-10 22-13-22z" fill="#5e2f34" fill-rule="evenodd" style="paint-order:fill markers stroke"/>
<path d="m-399 709-2-7-11-2-19 2-2 7" fill="none" stroke="#5e2f34" stroke-width="3"/>
<rect x="-449" y="718" width="11" height="18" fill="#dd765b" stroke-width=".7"/>
<rect x="-439" y="718" width="14" height="18" fill="#f9b087" stroke-width=".7"/>
<g transform="translate(-492 590)">
<rect x="41" y="122" width="15" height="6" fill="#966f0e" stroke-width=".7"/>
<rect x="56" y="122" width="15" height="6" fill="#e3a424" stroke-width=".5"/>
<path d="m56 122v-60l10 15-5 45z" fill="#f9f9f9"/>
<path d="m56 122v-60l-10 15 5 45z" fill="#ccc"/>
</g>
</g>
<g transform="translate(-476 -282)">
<rect x="841" y="417" width="99" height="52" rx="34" fill="#feff2a" fill-rule="evenodd" style="paint-order:fill markers stroke"/>
<path d="m877 435c-.5 15-6 25-17 29l-2-4c5-2 9-5 12-9-2-2-4-4-6-5-1 2-3 4-5 5l-2-3c5-4 8-10 9-19h-9v-4h41v4h-14v13c4-2 7-4 9-7l2 3c1 1 .9 2-.6 1-3 2-7 4-11 7v12c0 1 .4 2 1 2h6c1 0 2-.6 2-2l.8-5 4 1-.9 5c-.5 3-2 4-5 4h-10c-2 0-3-1-3-3v-30h-11c-.3 2-.6 4-1 6zm-12 7c3 2 5 3 6 5 .9-3 2-6 2-9h-7c-.4 2-.9 3-2 4zm39-14h6l-.9 20h-4zm.4 27h5v5h-5zm14-27h6l-.9 20h-4zm.4 27h5v5h-5z" fill="#f00" aria-label="死！！"/>
<path d="m889 466 20 28-4-28z" fill="#feff2a"/>
</g>
<rect x="-234" y="98" width="71" height="51" rx="19" fill="#feff2a" fill-rule="evenodd" stroke-width=".8" style="paint-order:fill markers stroke"/>
<path d="m-203 146 20 28-4-28z" fill="#feff2a"/>
<g fill="#f00">
<rect x="64" y="103" width="138" height="54" rx="34" fill-rule="evenodd" style="paint-order:fill markers stroke"/>
<path d="m105 151 8 30 8-30z"/>
<path d="m145 157 26 40-10-40z"/>
<path d="m182 150 37 26-24-36z"/>
<path d="m73 150-16 43 32-43z"/>
</g>
<g transform="translate(120 -6)">
<path transform="matrix(.7 0 0 .3 -549 -100)" d="m547 110 9 29-30-2-5 31-27-15-16 27-21-23-21 20-13-28-28 9-.4-30-30-2 11-28-29-11 21-22-21-21 27-16-13-26 30-4-1-29 29 8 11-30 24 19 19-24 17 24 26-14 6 30 29-4-5 29 30 9-15 24 24 19-24 18 18 26z" fill="#f00" fill-rule="evenodd" style="paint-order:fill markers stroke"/>
<path d="m-273-66v-1q1-.2 2-.5.5-.2.8-.7.2-.5.2-1 0-.7-.2-2-.2-.8-.5-2l-.8-3h-10l-.7 2q-.5 2-.7 2-.2.8-.2 1 0 1 .6 2 .6.6 2 .8v1h-9v-1q1-.2 2-1 .9-1 2-3l9-23h3l7 23q.5 2 .9 2 .4.9.9 1 .5.5 1 .7v1zm-8-11h9l-4-13zm32 11v-1q1-.4 2-1 .4-.7.4-3v-14h-4q-.7 7-2 12t-3 6-3 1q-2 0-3-.3v-4h2q.1 2 1 2 2 0 3-5t1-8q0-2-2-3v-1h15v1q-1 .3-2 1-.4.7-.4 3v11q0 2 .4 3 .4.7 2 1v1zm24-3-.3-.08q-2 2-3 3-2 .8-3 .8-2 0-3-.6-1-.6-2-2-.6-1-.6-3 0-3 3-5 3-2 9-2v-1q0-2-.4-3t-1-2q-.9-.6-2-.6-2 0-3 .9-1 .9-1 3h-3v-3q2-1 3-2 1-.5 3-.8 1-.3 3-.3 2 0 3 .7 1 .6 2 2t.6 4v7q0 2 .02 2 .02.6.1 1 .1.5.3.9.2.3.6.5.4.2 1 .5v1h-6zm-.4-7q-4 .04-6 1-2 1-2 3 0 1 .5 2t1 1q.7.2 2 .2 1 0 3-.7 1-.7 2-2 .6-1 .6-2zm18-3 3-3q.4-.6.7-1 .3-.5.3-1 0-.5-.4-.8t-1-.5v-1h7v1q-.8.2-2 .9-.8.7-2 2l-4 5 5 6q1 1 2 2t2 1v1h-8v-1q2-.2 2-1 0-.4-.1-.8t-.5-.9l-3-4-3 4q-.4.5-.6.9-.2.4-.2.9 0 .6.4.9.4.4 1 .4v1h-7v-1q.7-.2 1-.6.6-.4 1-1 .6-.6 2-2l4-5-4-6q-.9-1-1-2t-1-.9-.9-.4v-1h8v1q-2 .2-2 1 0 .5.2 1 .2.5.7 1zm18-16-1 20h-2l-1-20zm-.2 24v5h-4v-5zm12-24-1 20h-2l-1-20zm-.2 24v5h-4v-5z" aria-label="Алах!!"/>
</g>
<path d="m-99 125 2 6-5-2-.6 7-4-5-3 6-1-6-5 4 1-7-6 .4 4-5-5-3 5-3-3-5 6 .5-.8-6 5 4 2-6 3 6 4-5 .07 7 6-1-3 6 6 1-5 4 4 4z" fill="#f00" fill-rule="evenodd" stroke-width=".2" style="paint-order:fill markers stroke"/>
<path transform="matrix(1 0 0 1 -9 -7)" d="m93 115-9 23c-.5 1-1 3-2 3-.6.8-1 1-2 1v1h9v-1c-.9-.1-2-.4-2-.8-.4-.4-.6-1-.6-2 0-.4.05-.9.2-1 .1-.5.3-1 .7-2l.7-2h10l.8 3c.2.7.4 1 .5 2 .1.5.2 1 .2 2 0 .5-.08.9-.2 1-.2.3-.4.5-.8.7-.3.2-.8.3-2 .5v1h10v-1c-.6-.2-1-.4-1-.7-.4-.3-.7-.8-.9-1-.2-.6-.5-1-.9-2l-7-23zm56 0-9 23c-.5 1-1 3-2 3-.6.8-1 1-2 1v1h9v-1c-.9-.1-2-.4-2-.8-.4-.4-.6-1-.6-2 0-.4.06-.9.2-1 .1-.5.3-1 .7-2l.7-2h10l.8 3c.2.7.4 1 .5 2 .1.5.2 1 .2 2 0 .5-.08.9-.2 1-.2.3-.4.5-.8.7-.3.2-.8.3-2 .5v1h10v-1c-.6-.2-1-.4-1-.7-.4-.3-.7-.8-.9-1-.2-.6-.5-1-.9-2l-7-23zm-32 .3v1c.8.1 1 .3 2 .7.3.4.5 1 .5 2 0 2-.3 4-1 7-.7 3-1 6-2 9-.8 2-1 4-2 5-.6.6-1 .9-2 .9-.8 0-1-.5-1-1h-2v4c1 .3 2 .5 3 .5 1 0 2-.4 3-1 1-.8 2-2 3-5 .9-2 2-6 3-10s1-8 2-11h6v21c0 1-.1 2-.4 3s-1 1-2 1v1h9v-1c-1-.2-2-.6-2-1-.3-.4-.4-1-.4-3v-18c0-2 .1-3 .4-3 .3-.4 1-.8 2-1v-1zm47 0v1c.2.08.5.2.7.3.2.1.4.3.6.5.2.2.5.6.8 1 .3.4.7 1 1 2l6 10-5 8c-.8 1-1 2-2 3s-.7.9-1 1c-.3.3-.6.6-1 .8-.3.2-.8.4-1 .5v1h8v-1c-.6-.1-1-.3-1-.6s-.4-.7-.4-1c0-.7.3-2 1-3l4-7 4 6c.4.7.7 1 .9 2 .2.5.3.9.3 1 0 .5-.2.9-.5 1-.3.2-.8.4-1 .5v1h9v-1c-.5-.2-.9-.4-1-.6-.3-.2-.6-.5-.9-.9-.3-.3-.6-.8-.9-1-.3-.5-.9-1-2-3l-5-9 5-7c.9-1 2-2 2-3 .5-.6.9-1 1-1 .4-.3.9-.6 1-.7v-1h-8v1c.6.1 1 .3 1 .6.2.3.4.7.4 1 0 .3-.05.6-.1.9-.08.3-.2.7-.5 1s-.6 1-1 2l-3 5-3-5c-.5-.8-.9-2-1-2-.3-.6-.4-1-.4-1 0-.5.1-.8.4-1s.8-.4 1-.5v-1zm-70 4 4 13h-9zm56 0 4 13h-9z" fill="#ff0"/>
<path d="m-211 116h10c-.6 16-9 21-16 25m23-17 12-8m-12-10-.07 34h13l2-8m-34-11 9 7m-15-.9c6-6 8-13 10-22m-12 0h41" fill="none" stroke="#000" stroke-width="4"/>
<path transform="translate(79 13)" d="m-311-13c-3 4 3 42-1 46-4 4-21-9-26-8-5 2-21 33-27 33-6 .8-35-31-40-32-6-2-32 4-36 1-5-3 16-22 13-27-3-5-34-18-35-23s18-30 19-36-20-31-17-36 30 7 34 3c4-4 23-38 28-41 5-3 19 16 25 16 6-.3 31-26 37-23 5 2 10 34 14 37 5 3 40 9 43 13 3 5-22 33-21 39 .3 6 21 15 21 21s-27 11-30 15z" fill="#f00" fill-rule="evenodd" style="paint-order:fill markers stroke"/>
</svg>
